<?xml version="1.0" ?><svg data-name="Layer 1" id="Layer_1" viewBox="0 0 272 272" xmlns="http://www.w3.org/2000/svg"><defs><style>.cls-1{fill:orange;}.cls-2{fill:#fff176;}</style></defs><title/><path class="cls-1" d="M212.8,8,8,212.8,59.2,264l9.6-9.6,6.4-6.4,6.4-6.4,6.4-6.4,6.4-6.4,6.4-6.4,6.4-6.4,6.4-6.4,6.4-6.4,6.4-6.4,6.4-6.4,6.4-6.4,6.4-6.4,6.4-6.4,6.4-6.4,6.4-6.4,6.4-6.4,6.4-6.4,6.4-6.4,6.4-6.4,6.4-6.4,6.4-6.4,6.4-6.4,6.4-6.4,6.4-6.4,6.4-6.4,6.4-6.4,6.4-6.4,6.4-6.4,16-16Zm29.55,61.55L236,76,228.8,68.8l-6.4,6.4,7.15,7.15-6.4,6.4L216,81.6,209.6,88l7.15,7.15-6.4,6.4L203.2,94.4l-6.4,6.4L204,108l-6.4,6.4-7.15-7.15-6.4,6.4,7.15,7.15-6.4,6.4L171.2,113.6l-6.4,6.4,13.55,13.55L172,140l-7.15-7.15-6.4,6.4,7.15,7.15-6.4,6.4L152,145.6l-6.4,6.4,7.15,7.15-6.4,6.4-7.15-7.15-6.4,6.4L140,172l-6.4,6.4-7.15-7.15-6.4,6.4,7.15,7.15-6.4,6.4L107.2,177.6l-6.4,6.4,13.55,13.55L108,204l-7.15-7.15-6.4,6.4,7.15,7.15-6.4,6.4L88,209.6,81.6,216l7.15,7.15-6.4,6.4L75.2,222.4l-6.4,6.4L76,236l-6.4,6.4L62.4,235.2,56,241.6l7.15,7.15-4,3.94L19.31,212.8,212.8,19.31,252.69,59.2l-3.94,3.95L235.2,49.6,228.8,56Z"/><rect class="cls-2" height="10.11" transform="translate(-152.72 115.26) rotate(-45)" width="9.05" x="58.25" y="236.92"/><rect class="cls-2" height="10.11" transform="translate(-139.92 120.56) rotate(-45)" width="9.05" x="71.05" y="224.12"/><rect class="cls-2" height="10.11" transform="translate(-127.12 125.87) rotate(-45)" width="9.05" x="83.85" y="211.32"/><rect class="cls-2" height="10.11" transform="translate(-114.32 131.17) rotate(-45)" width="9.05" x="96.65" y="198.52"/><rect class="cls-2" height="19.16" transform="translate(-100.19 133.27) rotate(-45)" width="9.05" x="106.25" y="177.99"/><rect class="cls-2" height="10.11" transform="translate(-88.72 141.77) rotate(-45)" width="9.05" x="122.25" y="172.92"/><rect class="cls-2" height="10.11" transform="translate(-75.92 147.07) rotate(-45)" width="9.05" x="135.05" y="160.12"/><rect class="cls-2" height="10.11" transform="translate(-63.12 152.37) rotate(-45)" width="9.05" x="147.85" y="147.32"/><rect class="cls-2" height="10.11" transform="translate(-50.32 157.68) rotate(-45)" width="9.05" x="160.65" y="134.52"/><rect class="cls-2" height="19.16" transform="translate(-36.19 159.78) rotate(-45)" width="9.05" x="170.25" y="113.99"/><rect class="cls-2" height="10.11" transform="translate(-24.72 168.28) rotate(-45)" width="9.05" x="186.25" y="108.92"/><rect class="cls-2" height="10.11" transform="translate(-11.92 173.58) rotate(-45)" width="9.05" x="199.05" y="96.12"/><rect class="cls-2" height="10.11" transform="translate(0.88 178.88) rotate(-45)" width="9.05" x="211.85" y="83.32"/><rect class="cls-2" height="10.11" transform="translate(13.68 184.19) rotate(-45)" width="9.05" x="224.65" y="70.52"/><rect class="cls-2" height="19.16" transform="translate(27.81 186.29) rotate(-45)" width="9.05" x="234.25" y="49.99"/><rect class="cls-1" height="18.1" transform="translate(-153.89 118.09) rotate(-45)" width="9.05" x="61.07" y="235.75"/><polygon class="cls-1" points="88 235.2 81.6 241.6 68.8 228.8 75.2 222.4 82.35 229.55 88 235.2"/><polygon class="cls-1" points="100.8 222.4 94.4 228.8 88.75 223.15 81.6 216 88 209.6 100.8 222.4"/><rect class="cls-1" height="18.1" transform="translate(-115.49 133.99) rotate(-45)" width="9.05" x="99.47" y="197.35"/><rect class="cls-1" height="27.15" transform="translate(-101.36 136.09) rotate(-45)" width="9.05" x="109.07" y="176.82"/><rect class="cls-1" height="18.1" transform="translate(-89.89 144.6) rotate(-45)" width="9.05" x="125.07" y="171.75"/><polygon class="cls-1" points="152 171.2 145.6 177.6 132.8 164.8 139.2 158.4 146.35 165.55 152 171.2"/><polygon class="cls-1" points="164.8 158.4 158.4 164.8 152.75 159.15 145.6 152 152 145.6 164.8 158.4"/><rect class="cls-1" height="18.1" transform="translate(-51.49 160.5) rotate(-45)" width="9.05" x="163.47" y="133.35"/><rect class="cls-1" height="27.15" transform="translate(-37.36 162.6) rotate(-45)" width="9.05" x="173.07" y="112.82"/><rect class="cls-1" height="18.1" transform="translate(-25.89 171.1) rotate(-45)" width="9.05" x="189.07" y="107.75"/><polygon class="cls-1" points="216 107.2 209.6 113.6 196.8 100.8 203.2 94.4 210.35 101.55 216 107.2"/><polygon class="cls-1" points="228.8 94.4 222.4 100.8 216.75 95.15 209.6 88 216 81.6 228.8 94.4"/><rect class="cls-1" height="18.1" transform="translate(12.51 187.01) rotate(-45)" width="9.05" x="227.47" y="69.35"/><rect class="cls-1" height="27.15" transform="translate(26.64 189.11) rotate(-45)" width="9.05" x="237.07" y="48.82"/></svg>